<svg width="63" height="77" viewBox="0 0 63 77" fill="none" xmlns="http://www.w3.org/2000/svg">
<path d="M3.6682 4.72036L3.17999 6.02224L2.20357 7.16139L34.0998 13.1826L62.5785 4.55762L33.2861 9.27695L3.6682 4.72036Z" fill="#0C3225"/>
<path d="M36.0522 0.487843L62.5781 4.55623C55.5805 5.80387 41.2598 8.62462 39.4697 9.11283C35.5321 10.1867 34.4249 10.4147 31.0074 9.92651C29.5011 9.71132 13.4717 6.9892 3.98301 5.14095C3.42839 5.03292 3.46025 4.24705 4.02065 4.17474C5.3865 3.9985 6.67764 3.45028 7.75304 2.58997L8.23987 2.2005C10.0176 0.778357 12.2373 0.0239151 14.5134 0.068255L36.0522 0.487843Z" fill="#175E45"/>
<path d="M61.1338 9.65747L33.7747 16.2963V76.9731C39.1124 76.8429 43.7558 72.1996 45.0035 70.6264C44.678 58.7467 49.8855 53.7019 50.3737 52.8883C50.6942 52.3542 51.6574 42.6904 52.2925 36.122C52.5242 33.7254 53.6896 31.5189 55.5393 29.9775C56.2147 29.4147 56.8054 28.7573 57.293 28.0258L57.5601 27.6252C58.3994 26.3663 58.9367 24.9308 59.1303 23.4302L61.1338 9.65747Z" fill="#6A9585"/>
<path d="M33.7775 76.9746L33.7747 16.2963L0.742188 9.27655V9.43367C0.742188 12.1696 2.89574 14.5185 3.97347 17.0332L5.87 21.4584C6.24472 22.3328 6.43793 23.2741 6.43793 24.2253C6.43793 25.8203 6.98076 27.3678 7.97713 28.6133L9.20518 30.1483C10.3738 31.6091 11.1013 33.3729 11.3024 35.2328L14.9002 68.5123L17.0158 69.8142L19.294 68.5123L24.8271 71.9298V75.3472C25.7384 76.9095 31.1737 77.0831 33.7775 76.9746Z" fill="#175E45"/>
<path d="M52.2952 63.2289C51.1417 67.4135 48.3143 70.2841 45.98 69.6407C43.6457 68.9972 42.6885 65.0834 43.8419 60.8988C44.9954 56.7142 47.8228 53.8436 50.1571 54.487C52.4914 55.1305 53.4486 59.0444 52.2952 63.2289Z" fill="black"/>
<path d="M54.6342 63.9725C53.4807 68.157 50.6298 71.0212 48.2665 70.3698C45.9032 69.7183 44.9224 65.798 46.0759 61.6134C47.2293 57.4288 50.0802 54.5647 52.4436 55.2161C54.8069 55.8676 55.7877 59.7879 54.6342 63.9725Z" fill="#363636"/>
<path d="M62.5817 6.03991V4.55762C53.9025 6.94441 35.9582 11.7505 33.6148 11.8807C31.2714 12.0109 12.3507 8.02931 3.18322 6.02224C1.75115 6.41281 0.959168 8.19164 0.742188 9.27655L31.6564 16.1299C33.0536 16.4396 34.5016 16.4405 35.8992 16.1326L58.467 11.16C60.8702 10.6305 62.5817 8.50078 62.5817 6.03991Z" fill="#114634"/>
<path d="M17.8282 40.8477L19.2928 68.5127L24.8258 71.9302L22.873 43.126L17.8282 40.8477Z" fill="#114633"/>
<path d="M19.6183 46.0552L17.8282 40.8477L22.873 43.126L23.0357 46.5434L19.6183 46.0552Z" fill="#0C3225"/>
<path d="M19.6183 46.0552L17.8282 40.8477L19.2928 68.5127L20.2692 69.1637L19.6183 46.0552Z" fill="#6A9585"/>
</svg>
