<svg width="63" height="78" viewBox="0 0 63 78" fill="none" xmlns="http://www.w3.org/2000/svg">
<path d="M3.79541 4.79802L3.29541 6.09802L2.29541 7.19802L34.1954 13.198L62.6954 4.59802L33.4954 9.29802L3.79541 4.79802Z" fill="#0C3225"/>
<path d="M36.1952 0.598083L62.6952 4.69808C55.6952 5.89808 41.3952 8.79808 39.5952 9.29808C35.6952 10.3981 34.5952 10.5981 31.0952 10.0981C29.5952 9.89808 13.5952 7.19808 4.09523 5.29808C3.49523 5.19808 3.59523 4.39808 4.09523 4.29808C5.49523 4.09808 6.79523 3.59808 7.79523 2.69808L8.29523 2.29808C10.0952 0.898083 12.2952 0.0980828 14.5952 0.198083L36.1952 0.598083Z" fill="#175E45"/>
<path d="M61.2953 9.698L33.8953 16.298V76.998C39.1953 76.898 43.8953 72.198 45.0953 70.698C44.7953 58.798 49.9953 53.798 50.4953 52.998C50.7953 52.498 51.7953 42.798 52.3953 36.198C52.5953 33.798 53.7953 31.598 55.5953 30.098C56.2953 29.498 56.8953 28.898 57.3953 28.098L57.6953 27.698C58.4953 26.398 59.0953 24.998 59.2953 23.498L61.2953 9.698Z" fill="#6A9585"/>
<path d="M33.8953 76.9981V16.2981L0.895264 9.2981V9.4981C0.895264 12.1981 3.09526 14.5981 4.09526 17.0981L5.99526 21.4981C6.39526 22.3981 6.59526 23.2981 6.59526 24.2981C6.59526 25.8981 7.09526 27.3981 8.09526 28.6981L9.29526 30.1981C10.4953 31.6981 11.1953 33.3981 11.3953 35.2981L14.9953 68.5981L17.0953 69.8981L19.3953 68.5981L24.8953 71.9981V75.3981C25.8953 76.9981 31.2953 77.1981 33.8953 76.9981Z" fill="#175E45"/>
<path d="M52.4954 63.2981C51.2954 67.4981 48.4954 70.3981 46.1954 69.6981C43.8954 69.0981 42.8954 65.0981 44.0954 60.9981C45.2954 56.7981 48.0954 53.8981 50.3954 54.5981C52.6954 55.1981 53.5954 59.0981 52.4954 63.2981Z" fill="black"/>
<path d="M54.7952 63.998C53.5952 68.198 50.7952 70.998 48.3952 70.398C45.9952 69.698 45.0952 65.798 46.1952 61.598C47.3952 57.398 50.1952 54.598 52.5952 55.198C54.9952 55.898 55.9952 59.898 54.7952 63.998Z" fill="#363636"/>
<path d="M62.6953 6.09802V4.59802C53.9953 6.99802 36.0953 11.798 33.6953 11.898C31.3953 11.998 12.3953 7.99802 3.29526 5.99802C1.89526 6.49802 1.09526 8.29802 0.895264 9.29802L31.7953 16.198C33.1953 16.498 34.5953 16.498 35.9953 16.198L58.5953 11.198C60.9953 10.698 62.6953 8.59802 62.6953 6.09802Z" fill="#114634"/>
<path d="M17.9954 40.8981L19.4954 68.5981L24.9954 71.9981L22.9954 43.1981L17.9954 40.8981Z" fill="#114633"/>
<path d="M19.7954 46.0981L17.9954 40.8981L22.9954 43.1981L23.1954 46.5981L19.7954 46.0981Z" fill="#0C3225"/>
<path d="M19.7954 46.0981L17.9954 40.8981L19.4954 68.5981L20.4954 69.2981L19.7954 46.0981Z" fill="#6A9585"/>
<path d="M17.6953 19.098C18.5953 19.098 18.8953 19.398 18.8953 19.398C19.5953 19.698 20.3953 21.598 20.3953 21.598L18.2953 24.398L15.1953 21.798L16.9953 19.398C16.8953 19.398 16.8953 19.098 17.6953 19.098Z" fill="white"/>
<path d="M19.2953 19.298C19.2953 19.298 19.6953 19.598 19.9953 20.098C20.2953 20.598 21.7953 23.898 21.7953 23.898L20.7953 24.298L24.3953 25.398L26.1953 22.798L25.1953 23.098C25.1953 23.098 24.1953 21.098 24.0953 20.898C23.8953 20.598 23.6953 20.498 22.8953 20.298C21.9953 20.098 19.2953 19.298 19.2953 19.298Z" fill="white"/>
<path d="M26.4953 26.098L23.1953 26.998L24.9953 30.798C24.9953 30.798 25.9953 31.498 27.2953 31.198C27.2953 31.198 27.9953 30.998 28.0953 29.898C28.1953 29.298 26.4953 26.098 26.4953 26.098Z" fill="white"/>
<path d="M27.4953 31.598L25.2953 34.698C25.2953 34.698 24.7953 34.798 24.2953 34.698L22.6953 34.198L22.5953 35.498L20.6953 31.798L22.6953 29.298V30.598L26.4953 31.798C26.4953 31.798 27.0953 31.898 27.4953 31.598Z" fill="white"/>
<path d="M19.7954 29.698L19.6954 33.398L16.2954 32.498C16.2954 32.498 14.9954 31.798 14.8954 30.298C14.8954 30.298 14.9954 29.398 15.7954 28.598L19.7954 29.698Z" fill="white"/>
<path d="M16.7953 26.5981L17.8953 27.4981L16.1953 23.8981L12.5953 22.8981L13.5953 23.7981L12.5953 25.2981C12.5953 25.2981 12.3953 25.5981 12.6953 26.2981C12.9953 26.9981 14.5953 30.2981 14.5953 30.2981C14.5953 30.2981 14.4953 29.9981 14.6953 29.4981C14.8953 28.9981 16.7953 26.5981 16.7953 26.5981Z" fill="white"/>
</svg>
