<svg width="70%" height="70%" viewBox="0 0 17 17" fill="none" xmlns="http://www.w3.org/2000/svg">
<path d="M4.25488 0.754883C4.38749 0.754883 4.51467 0.807561 4.60844 0.901329C4.7022 0.995098 4.75488 1.12227 4.75488 1.25488V1.75488H12.7549V1.25488C12.7549 1.12227 12.8076 0.995098 12.9013 0.901329C12.9951 0.807561 13.1223 0.754883 13.2549 0.754883C13.3875 0.754883 13.5147 0.807561 13.6084 0.901329C13.7022 0.995098 13.7549 1.12227 13.7549 1.25488V1.75488H14.7549C15.2853 1.75488 15.794 1.9656 16.1691 2.34067C16.5442 2.71574 16.7549 3.22445 16.7549 3.75488V14.7549C16.7549 15.2853 16.5442 15.794 16.1691 16.1691C15.794 16.5442 15.2853 16.7549 14.7549 16.7549H2.75488C2.22445 16.7549 1.71574 16.5442 1.34067 16.1691C0.965597 15.794 0.754883 15.2853 0.754883 14.7549V3.75488C0.754883 3.22445 0.965597 2.71574 1.34067 2.34067C1.71574 1.9656 2.22445 1.75488 2.75488 1.75488H3.75488V1.25488C3.75488 1.12227 3.80756 0.995098 3.90133 0.901329C3.9951 0.807561 4.12227 0.754883 4.25488 0.754883V0.754883ZM14.2089 3.75488H3.29988C2.99988 3.75488 2.75488 3.97888 2.75488 4.25488V5.25488C2.75488 5.53088 2.99888 5.75488 3.29988 5.75488H14.2099C14.5099 5.75488 14.7549 5.53088 14.7549 5.25488V4.25488C14.7549 3.97888 14.5109 3.75488 14.2089 3.75488ZM7.60888 8.90088C7.5624 8.85439 7.50721 8.81752 7.44647 8.79236C7.38573 8.7672 7.32063 8.75425 7.25488 8.75425C7.18914 8.75425 7.12404 8.7672 7.0633 8.79236C7.00256 8.81752 6.94737 8.85439 6.90088 8.90088C6.85439 8.94737 6.81752 9.00256 6.79236 9.0633C6.7672 9.12404 6.75425 9.18914 6.75425 9.25488C6.75425 9.32063 6.7672 9.38573 6.79236 9.44647C6.81752 9.50721 6.85439 9.5624 6.90088 9.60888L8.04788 10.7549L6.90088 11.9009C6.807 11.9948 6.75425 12.1221 6.75425 12.2549C6.75425 12.3877 6.807 12.515 6.90088 12.6089C6.99477 12.7028 7.12211 12.7555 7.25488 12.7555C7.38766 12.7555 7.515 12.7028 7.60888 12.6089L8.75488 11.4619L9.90088 12.6089C9.99477 12.7028 10.1221 12.7555 10.2549 12.7555C10.3877 12.7555 10.515 12.7028 10.6089 12.6089C10.7028 12.515 10.7555 12.3877 10.7555 12.2549C10.7555 12.1221 10.7028 11.9948 10.6089 11.9009L9.46188 10.7549L10.6089 9.60888C10.7028 9.515 10.7555 9.38766 10.7555 9.25488C10.7555 9.12211 10.7028 8.99477 10.6089 8.90088C10.515 8.807 10.3877 8.75425 10.2549 8.75425C10.1221 8.75425 9.99477 8.807 9.90088 8.90088L8.75488 10.0479L7.60888 8.90088Z" fill="currentColor"></path>
</svg>