<svg width="100%" height="100%" viewBox="0 0 50 50" fill="none" xmlns="http://www.w3.org/2000/svg">
<path d="M0 12.25C0 10.5924 0.65848 9.00268 1.83058 7.83058C3.00269 6.65848 4.5924 6 6.25 6H43.75C45.4076 6 46.9973 6.65848 48.1694 7.83058C49.3415 9.00268 50 10.5924 50 12.25V27.875H0V12.25ZM35.9375 15.375C35.5231 15.375 35.1257 15.5396 34.8326 15.8326C34.5396 16.1257 34.375 16.5231 34.375 16.9375V20.0625C34.375 20.4769 34.5396 20.8743 34.8326 21.1674C35.1257 21.4604 35.5231 21.625 35.9375 21.625H42.1875C42.6019 21.625 42.9993 21.4604 43.2924 21.1674C43.5854 20.8743 43.75 20.4769 43.75 20.0625V16.9375C43.75 16.5231 43.5854 16.1257 43.2924 15.8326C42.9993 15.5396 42.6019 15.375 42.1875 15.375H35.9375ZM0 34.125V37.25C0 38.9076 0.65848 40.4973 1.83058 41.6694C3.00269 42.8415 4.5924 43.5 6.25 43.5H43.75C45.4076 43.5 46.9973 42.8415 48.1694 41.6694C49.3415 40.4973 50 38.9076 50 37.25V34.125H0Z" fill="currentColor"></path>
</svg>