<svg width="100%" height="100%" viewBox="0 0 25 24" fill="none" xmlns="http://www.w3.org/2000/svg">
<path d="M12.7994 5.06667C11.3849 5.06667 10.0284 5.62857 9.02818 6.62876C8.02798 7.62896 7.46608 8.98551 7.46608 10.4V11.4667H8.53275C8.81565 11.4667 9.08696 11.579 9.28699 11.7791C9.48703 11.9791 9.59941 12.2504 9.59941 12.5333V15.7333C9.59941 16.0162 9.48703 16.2875 9.28699 16.4876C9.08696 16.6876 8.81565 16.8 8.53275 16.8H7.46608C7.18318 16.8 6.91187 16.6876 6.71183 16.4876C6.51179 16.2875 6.39941 16.0162 6.39941 15.7333V10.4C6.39941 9.55954 6.56495 8.72731 6.88658 7.95083C7.20822 7.17434 7.67964 6.46881 8.27393 5.87452C8.86823 5.28022 9.57376 4.8088 10.3502 4.48717C11.1267 4.16554 11.959 4 12.7994 4C13.6399 4 14.4721 4.16554 15.2486 4.48717C16.0251 4.8088 16.7306 5.28022 17.3249 5.87452C17.9192 6.46881 18.3906 7.17434 18.7122 7.95083C19.0339 8.72731 19.1994 9.55954 19.1994 10.4V16.8C19.1994 17.5072 18.9185 18.1855 18.4184 18.6856C17.9183 19.1857 17.24 19.4667 16.5327 19.4667H14.2565C14.1629 19.6288 14.0282 19.7635 13.8661 19.8571C13.7039 19.9507 13.52 20 13.3327 20H12.2661C11.9832 20 11.7119 19.8876 11.5118 19.6876C11.3118 19.4875 11.1994 19.2162 11.1994 18.9333C11.1994 18.6504 11.3118 18.3791 11.5118 18.1791C11.7119 17.979 11.9832 17.8667 12.2661 17.8667H13.3327C13.52 17.8667 13.7039 17.916 13.8661 18.0096C14.0282 18.1032 14.1629 18.2379 14.2565 18.4H16.5327C16.9571 18.4 17.3641 18.2314 17.6641 17.9314C17.9642 17.6313 18.1327 17.2243 18.1327 16.8H17.0661C16.7832 16.8 16.5119 16.6876 16.3118 16.4876C16.1118 16.2875 15.9994 16.0162 15.9994 15.7333V12.5333C15.9994 12.2504 16.1118 11.9791 16.3118 11.7791C16.5119 11.579 16.7832 11.4667 17.0661 11.4667H18.1327V10.4C18.1327 9.69962 17.9948 9.00609 17.7268 8.35902C17.4587 7.71195 17.0659 7.12401 16.5707 6.62876C16.0754 6.13352 15.4875 5.74067 14.8404 5.47264C14.1933 5.20462 13.4998 5.06667 12.7994 5.06667Z" fill="currentColor"></path>
</svg>