<svg width="21" height="19" viewBox="0 0 21 19" fill="none" xmlns="http://www.w3.org/2000/svg" aria-hidden="true">
<path d="M9.73689 0.667031C10.0806 -0.149428 11.2514 -0.149427 11.5951 0.667033L13.6239 5.48592C13.7689 5.83012 14.0966 6.0653 14.4727 6.09509L19.7387 6.51217C20.6309 6.58283 20.9927 7.68282 20.3129 8.25809L16.3008 11.6534C16.0142 11.8959 15.889 12.2765 15.9766 12.639L17.2023 17.7157C17.41 18.5758 16.4629 19.2557 15.699 18.7948L11.1905 16.0742C10.8685 15.8799 10.4635 15.8799 10.1415 16.0742L5.633 18.7948C4.86913 19.2557 3.92197 18.5758 4.12965 17.7157L5.35544 12.639C5.44299 12.2765 5.31784 11.8959 5.03127 11.6534L1.01908 8.25809C0.339298 7.68282 0.701083 6.58283 1.59331 6.51217L6.85937 6.09509C7.23552 6.0653 7.56317 5.83012 7.70808 5.48592L9.73689 0.667031Z" fill="#FFCE00" aria-hidden="true"></path>
</svg>