<svg xmlns:xlink="http://www.w3.org/1999/xlink" width="25" height="24" viewBox="0 0 25 24" fill="none" xmlns="http://www.w3.org/2000/svg">
<path d="M20.5996 12C20.5996 14.1217 19.7568 16.1566 18.2565 17.6569C16.7562 19.1571 14.7213 20 12.5996 20C10.4779 20 8.44305 19.1571 6.94276 17.6569C5.44246 16.1566 4.59961 14.1217 4.59961 12C4.59961 9.87827 5.44246 7.84344 6.94276 6.34315C8.44305 4.84285 10.4779 4 12.5996 4C14.7213 4 16.7562 4.84285 18.2565 6.34315C19.7568 7.84344 20.5996 9.87827 20.5996 12ZM12.5996 7.5C12.5996 7.36739 12.5469 7.24021 12.4532 7.14645C12.3594 7.05268 12.2322 7 12.0996 7C11.967 7 11.8398 7.05268 11.7461 7.14645C11.6523 7.24021 11.5996 7.36739 11.5996 7.5V13C11.5996 13.0881 11.623 13.1747 11.6672 13.2509C11.7115 13.3271 11.7751 13.3903 11.8516 13.434L15.3516 15.434C15.4665 15.4961 15.6011 15.5108 15.7266 15.4749C15.8521 15.4391 15.9587 15.3556 16.0235 15.2422C16.0882 15.1288 16.1061 14.9946 16.0732 14.8683C16.0404 14.7419 15.9594 14.6334 15.8476 14.566L12.5996 12.71V7.5Z" fill="#006F51"></path>
</svg>