<svg xmlns:xlink="http://www.w3.org/1999/xlink" width="32" height="32" viewBox="0 0 32 32" fill="none" xmlns="http://www.w3.org/2000/svg">
<path d="M11.539 25.7506C20.596 25.7506 25.5505 18.2461 25.5505 11.7496C25.5505 11.5396 25.5505 11.3266 25.5415 11.1166C26.5061 10.4183 27.3386 9.55378 28 8.56355C27.099 8.96083 26.1441 9.22266 25.1665 9.34055C26.1963 8.72501 26.9676 7.7565 27.337 6.61505C26.3695 7.18824 25.3105 7.59061 24.2065 7.80455C23.4643 7.01409 22.4821 6.49043 21.4121 6.31469C20.3422 6.13895 19.2441 6.32093 18.288 6.83246C17.3319 7.34398 16.5712 8.15649 16.1237 9.14414C15.6761 10.1318 15.5668 11.2395 15.8125 12.2956C13.8546 12.1974 11.9392 11.6888 10.1906 10.8027C8.4419 9.91658 6.89903 8.67282 5.662 7.15205C5.03401 8.23668 4.84236 9.51965 5.12597 10.7405C5.40958 11.9612 6.14718 13.0283 7.189 13.7251C6.40831 13.6985 5.64478 13.4889 4.96 13.1131V13.1806C4.96135 14.3168 5.35496 15.4177 6.07431 16.2972C6.79366 17.1767 7.79462 17.7809 8.908 18.0076C8.48539 18.124 8.04884 18.182 7.6105 18.1801C7.30148 18.181 6.99307 18.1524 6.6895 18.0946C7.00418 19.0726 7.61691 19.9278 8.44187 20.5403C9.26683 21.1527 10.2627 21.4918 11.29 21.5101C9.54483 22.8808 7.3891 23.6242 5.17 23.6206C4.77898 23.6222 4.38823 23.5997 4 23.5531C6.25227 24.9889 8.86795 25.7514 11.539 25.7506V25.7506Z" fill="#FFFFFF"></path>
</svg>