<svg xmlns:xlink="http://www.w3.org/1999/xlink" width="24" height="24" viewBox="0 0 24 24" fill="none" xmlns="http://www.w3.org/2000/svg">
<path d="M4.05 7.61002C4.15082 7.17372 4.39866 6.78416 4.75292 6.50514C5.10719 6.22612 5.54688 6.07419 6 6.07422H18C18.4531 6.07419 18.8928 6.22612 19.2471 6.50514C19.6013 6.78416 19.8492 7.17372 19.95 7.61002L12 12.409L4.05 7.61002ZM4 8.73792V15.7542L9.803 12.2401L4 8.73792ZM10.761 12.8199L4.191 16.7972C4.35333 17.1352 4.60953 17.4208 4.92978 17.6207C5.25004 17.8205 5.62117 17.9264 6 17.9261H18C18.3788 17.9262 18.7498 17.82 19.0698 17.62C19.3899 17.42 19.6459 17.1343 19.808 16.7962L13.238 12.8189L12 13.5666L10.761 12.8189V12.8199ZM14.197 12.2411L20 15.7542V8.73792L14.197 12.2401V12.2411Z" fill="#006F51"></path>
</svg>