<svg xmlns:xlink="http://www.w3.org/1999/xlink" width="32" height="32" viewBox="0 0 32 32" fill="none" xmlns="http://www.w3.org/2000/svg">
<path d="M16.0773 8H16.2108C17.4438 8.0045 23.6917 8.0495 25.3763 8.50253C25.8856 8.64079 26.3497 8.91029 26.7222 9.28409C27.0946 9.65789 27.3625 10.1229 27.499 10.6327C27.6505 11.2027 27.757 11.9572 27.829 12.7358L27.844 12.8918L27.877 13.2818L27.889 13.4378C27.9865 14.8089 27.9985 16.093 28 16.3735V16.486C27.9985 16.777 27.985 18.1481 27.877 19.5762L27.865 19.7337L27.8515 19.8897C27.7765 20.7478 27.6655 21.5999 27.499 22.2269C27.3629 22.7369 27.0952 23.2021 26.7227 23.576C26.3501 23.9498 25.8858 24.2192 25.3763 24.357C23.6362 24.8251 17.0223 24.8581 16.1058 24.8596H15.8927C15.4292 24.8596 13.5121 24.8506 11.502 24.7815L11.247 24.7726L11.1164 24.7665L10.8599 24.756L10.6034 24.7455C8.93831 24.672 7.35271 24.5535 6.62216 24.3555C6.11287 24.2178 5.6487 23.9487 5.27617 23.5751C4.90363 23.2015 4.63581 22.7366 4.49953 22.2269C4.33302 21.6014 4.22201 20.7478 4.14701 19.8897L4.13501 19.7322L4.12301 19.5762C4.04897 18.5598 4.00795 17.5412 4 16.522L4 16.3375C4.003 16.015 4.015 14.9004 4.09601 13.6704L4.10651 13.5158L4.11101 13.4378L4.12301 13.2818L4.15601 12.8918L4.17101 12.7358C4.24302 11.9572 4.34952 11.2012 4.50103 10.6327C4.63708 10.1227 4.9048 9.65747 5.27735 9.2836C5.6499 8.90974 6.11419 8.64038 6.62366 8.50253C7.35421 8.30752 8.93981 8.18751 10.6049 8.11251L10.8599 8.10201L11.1179 8.09301L11.247 8.08851L11.5035 8.07801C12.9311 8.03206 14.3594 8.00656 15.7877 8.0015H16.0773V8ZM13.6006 12.8153V20.0428L19.8365 16.4305L13.6006 12.8153Z" fill="#FFFFFF"></path>
</svg>